<svg width="146" height="142" viewBox="0 0 146 142" fill="none" xmlns="http://www.w3.org/2000/svg">
<path d="M58.4167 54H3V124.909H56.4722C56.4722 124.909 68.1389 124.909 73 132V69.6C71.2409 60.4085 65.2222 55.4182 58.4167 54Z" stroke="#3F51B5" stroke-width="6"/>
<path d="M87.5833 54H143V124.909H89.5278C89.5278 124.909 77.8611 124.909 73 132V69.6C74.7591 60.4085 80.7778 55.4182 87.5833 54Z" stroke="#3F51B5" stroke-width="6"/>
<circle cx="54" cy="36" r="18" stroke="#3F51B5" stroke-width="6"/>
<circle cx="92" cy="36" r="18" stroke="#3F51B5" stroke-width="6"/>
<circle cx="92" cy="36" r="8" fill="#3F51B5"/>
<circle cx="54" cy="36" r="8" fill="#3F51B5"/>
<line x1="40.8519" y1="12.7954" x2="63.9489" y2="3.22835" stroke="#3F51B5" stroke-width="6"/>
<line x1="81.1481" y1="3.22836" x2="104.245" y2="12.7954" stroke="#3F51B5" stroke-width="6"/>
<path d="M19 70C44.1248 70 52.4653 70 52.4653 70C63.0239 70.9049 66.3198 74.0922 71 81" stroke="#3F51B5" stroke-width="2"/>
<path d="M35 103C52.8772 103 58.8119 103 58.8119 103C66.3247 103.905 68.6698 107.092 72 114" stroke="#3F51B5" stroke-width="2"/>
<path d="M26 86C47.7426 86 54.9604 86 54.9604 86C64.0976 86.9049 66.9498 90.0922 71 97" stroke="#3F51B5" stroke-width="2"/>
<path d="M127 70C101.392 70 92.8911 70 92.8911 70C82.1295 70.9049 78.7702 74.0922 74 81" stroke="#3F51B5" stroke-width="2"/>
<path d="M111 103C92.6396 103 86.5446 103 86.5446 103C78.8287 103.905 76.4202 107.092 73 114" stroke="#3F51B5" stroke-width="2"/>
<path d="M120 86C97.7743 86 90.396 86 90.396 86C81.0558 86.9049 78.1402 90.0922 74 97" stroke="#3F51B5" stroke-width="2"/>
</svg>
